<svg width="104" height="21" viewBox="0 0 104 21" fill="none" xmlns="http://www.w3.org/2000/svg">
<g clip-path="url(#clip0_1_2)">
<path d="M69.136 0.00878906H87.251V3.37595H80.065V21.0901H76.4717V3.37595H69.136V0.00878906Z" fill="black"/>
<path d="M39.3437 0.00878906V3.37595H24.8233V8.79267H36.5006V12.1598H24.8233V17.723H39.3437V21.0901H21.2303V3.37595H21.2288V0.00878906H39.3437Z" fill="black"/>
<path d="M48.3891 0.0175781H43.6869L60.5291 21.0989H65.245L56.8228 10.5655L65.2315 0.0336618L60.5291 0.0409799L54.4686 7.62105L48.3891 0.0175781Z" fill="black"/>
<path d="M53.2142 15.0761L50.8594 12.1276L43.6733 21.115H48.389L53.2142 15.0761Z" fill="black"/>
<path fill-rule="evenodd" clip-rule="evenodd" d="M21.3562 21.0901L4.4913 0H0V21.0813H3.59304V4.50612L16.8424 21.0901H21.3562Z" fill="black"/>
<path d="M88.0587 20.9614C87.7955 20.9614 87.5717 20.8696 87.3843 20.686C87.1969 20.5024 87.1042 20.2801 87.1066 20.0168C87.1042 19.7607 87.1969 19.5408 87.3843 19.3572C87.5717 19.1736 87.7955 19.0818 88.0587 19.0818C88.3118 19.0818 88.5333 19.1736 88.7207 19.3572C88.9108 19.5408 89.0055 19.7607 89.0082 20.0168C89.0055 20.1907 88.9617 20.3501 88.8741 20.4927C88.7841 20.6376 88.6698 20.7512 88.5259 20.8333C88.3847 20.9179 88.229 20.9614 88.0587 20.9614Z" fill="black"/>
<path d="M94.1912 12.0804H95.7834V18.2579C95.781 18.8257 95.6591 19.3113 95.4207 19.7196C95.1797 20.1278 94.8461 20.4395 94.4177 20.6593C93.9917 20.8768 93.4925 20.9879 92.9253 20.9879C92.4066 20.9879 91.9417 20.8937 91.5279 20.7101C91.114 20.5265 90.7853 20.2511 90.5443 19.8887C90.3007 19.5263 90.1814 19.0745 90.1814 18.5333H91.7762C91.7786 18.7701 91.8322 18.9754 91.9344 19.147C92.0365 19.3185 92.1777 19.4489 92.358 19.5408C92.5404 19.6326 92.75 19.6785 92.986 19.6785C93.2417 19.6785 93.4608 19.6253 93.6385 19.5166C93.8161 19.4103 93.9526 19.2508 94.0476 19.0382C94.14 18.8281 94.1888 18.5672 94.1912 18.2579V12.0804Z" fill="black"/>
<path d="M102.335 14.4963C102.296 14.1219 102.125 13.8295 101.828 13.6218C101.529 13.4116 101.142 13.3077 100.667 13.3077C100.334 13.3077 100.046 13.3585 99.8078 13.4575C99.5692 13.559 99.3842 13.6942 99.2575 13.8658C99.131 14.0373 99.0677 14.233 99.0627 14.4529C99.0627 14.6365 99.1065 14.7959 99.1918 14.9288C99.277 15.0641 99.3913 15.1776 99.5399 15.2695C99.6859 15.3637 99.849 15.441 100.027 15.5038C100.207 15.5666 100.387 15.6198 100.567 15.6632L101.397 15.8686C101.731 15.9459 102.055 16.0498 102.364 16.1827C102.673 16.3131 102.953 16.4798 103.199 16.6803C103.445 16.8809 103.64 17.1225 103.783 17.4051C103.927 17.6878 104 18.0188 104 18.4005C104 18.9151 103.869 19.3668 103.603 19.7582C103.338 20.1472 102.956 20.4516 102.454 20.6715C101.955 20.8889 101.351 21 100.64 21C99.9538 21 99.3549 20.8937 98.851 20.6811C98.3447 20.4709 97.9501 20.1617 97.6653 19.7558C97.3805 19.3499 97.2271 18.8547 97.2052 18.2724H98.7829C98.8048 18.5768 98.9022 18.8305 99.0677 19.0359C99.2356 19.2388 99.4547 19.3886 99.7226 19.4901C99.9929 19.5891 100.295 19.6398 100.628 19.6398C100.976 19.6398 101.283 19.5867 101.548 19.4828C101.811 19.3789 102.018 19.234 102.167 19.0455C102.318 18.8595 102.393 18.6397 102.396 18.3884C102.393 18.1589 102.325 17.968 102.194 17.8182C102.06 17.6685 101.875 17.5428 101.638 17.4414C101.4 17.3399 101.122 17.2481 100.806 17.1684L99.7981 16.9123C99.0701 16.7262 98.4931 16.4436 98.0718 16.0643C97.6484 15.685 97.4388 15.1825 97.4388 14.5519C97.4388 14.0349 97.58 13.5807 97.8651 13.1918C98.1473 12.8028 98.5345 12.5008 99.0239 12.2858C99.5156 12.0684 100.071 11.962 100.689 11.962C101.317 11.962 101.867 12.0684 102.342 12.2858C102.817 12.5008 103.189 12.8004 103.459 13.1821C103.73 13.5638 103.871 14.0011 103.878 14.4963H102.335Z" fill="black"/>
</g>
<defs>
<clipPath id="clip0_1_2">
<rect width="104" height="21" fill="white"/>
</clipPath>
</defs>
</svg>
