<svg width="21" height="19" viewBox="0 0 21 19" fill="none" xmlns="http://www.w3.org/2000/svg">
<g clip-path="url(#clip0_0_3)">
<path d="M10.5 11.45C11.6046 11.45 12.5 10.5546 12.5 9.45001C12.5 8.34544 11.6046 7.45001 10.5 7.45001C9.39543 7.45001 8.5 8.34544 8.5 9.45001C8.5 10.5546 9.39543 11.45 10.5 11.45Z" fill="#149ECA"/>
<path d="M10.5 13.95C16.0228 13.95 20.5 11.9353 20.5 9.45001C20.5 6.96473 16.0228 4.95001 10.5 4.95001C4.97715 4.95001 0.5 6.96473 0.5 9.45001C0.5 11.9353 4.97715 13.95 10.5 13.95Z" stroke="#149ECA"/>
<path d="M6.60287 11.7C9.36429 16.4829 13.3477 19.3529 15.5 18.1102C17.6523 16.8676 17.1585 11.9829 14.3971 7.19999C11.6357 2.41706 7.6523 -0.452907 5.49998 0.789734C3.34766 2.03237 3.84144 6.91706 6.60287 11.7Z" stroke="#149ECA"/>
<path d="M6.60287 7.19999C3.84144 11.9829 3.34766 16.8676 5.49998 18.1102C7.6523 19.3529 11.6357 16.4829 14.3971 11.7C17.1585 6.91706 17.6523 2.03237 15.5 0.789734C13.3477 -0.452907 9.36429 2.41706 6.60287 7.19999Z" stroke="#149ECA"/>
</g>
<defs>
<clipPath id="clip0_0_3">
<rect width="21" height="18.9" fill="white"/>
</clipPath>
</defs>
</svg>
